<svg width="57" height="40" viewBox="0 0 57 40" fill="none" xmlns="http://www.w3.org/2000/svg">
<path d="M10.5305 0.119958C8.86521 -0.0972978 6.12232 0.029435 4.95903 0.119958C4.12637 0.337212 4.48964 0.904496 4.77535 1.16098C4.24495 2.26309 4.34455 2.80623 4.55107 3.01671C4.7576 3.2272 4.95903 3.75672 4.77535 4.60087C4.44881 6.51695 3.84472 10.8289 4.04064 12.748C4.23656 14.6671 3.30594 15.871 2.81614 16.2331C1.05285 18.116 0.897748 20.6084 1.04061 21.6193V30.219V38.8187C1.48959 39.2412 3.57534 40.068 8.32643 39.9955C13.0775 39.9231 14.7551 39.1808 15 38.8187V30.219V21.6193C15 18.6863 13.7347 16.8064 13.102 16.2331C11.8775 15.4003 11.8775 13.5785 11.8775 12.748C11.6326 10.4245 11.0693 5.54232 10.7754 4.60087C10.4816 3.65943 10.7754 3.1525 10.9591 3.01671C11.302 2.54599 10.8163 1.58342 10.5305 1.16098C11.1183 0.400584 10.7754 0.150134 10.5305 0.119958Z" fill="#231F20"/>
<path d="M24.5305 0.119958C22.8652 -0.0972978 20.1223 0.029435 18.959 0.119958C18.1264 0.337212 18.4896 0.904496 18.7753 1.16098C18.2449 2.26309 18.3445 2.80623 18.5511 3.01671C18.7576 3.2272 18.959 3.75672 18.7753 4.60087C18.4488 6.51695 17.8447 10.8289 18.0406 12.748C18.2366 14.6671 17.3059 15.871 16.8161 16.2331C15.0529 18.116 14.8977 20.6084 15.0406 21.6193V30.219V38.8187C15.4896 39.2412 17.5753 40.068 22.3264 39.9955C27.0775 39.9231 28.7551 39.1808 29 38.8187V30.219V21.6193C29 18.6863 27.7347 16.8064 27.102 16.2331C25.8775 15.4003 25.8775 13.5785 25.8775 12.748C25.6326 10.4245 25.0693 5.54232 24.7754 4.60087C24.4816 3.65943 24.7754 3.1525 24.9591 3.01671C25.302 2.54599 24.8163 1.58342 24.5305 1.16098C25.1183 0.400584 24.7754 0.150134 24.5305 0.119958Z" fill="#231F20"/>
<path d="M38.5305 0.119958C36.8652 -0.0972978 34.1223 0.029435 32.959 0.119958C32.1264 0.337212 32.4896 0.904496 32.7753 1.16098C32.2449 2.26309 32.3445 2.80623 32.5511 3.01671C32.7576 3.2272 32.959 3.75672 32.7753 4.60087C32.4488 6.51695 31.8447 10.8289 32.0406 12.748C32.2366 14.6671 31.3059 15.871 30.8161 16.2331C29.0529 18.116 28.8977 20.6084 29.0406 21.6193V30.219V38.8187C29.4896 39.2412 31.5753 40.068 36.3264 39.9955C41.0775 39.9231 42.7551 39.1808 43 38.8187V30.219V21.6193C43 18.6863 41.7347 16.8064 41.102 16.2331C39.8775 15.4003 39.8775 13.5785 39.8775 12.748C39.6326 10.4245 39.0693 5.54232 38.7754 4.60087C38.4816 3.65943 38.7754 3.1525 38.9591 3.01671C39.302 2.54599 38.8163 1.58342 38.5305 1.16098C39.1183 0.400584 38.7754 0.150134 38.5305 0.119958Z" fill="#231F20"/>
<path d="M52.5305 0.119958C50.8652 -0.0972978 48.1223 0.029435 46.959 0.119958C46.1264 0.337212 46.4896 0.904496 46.7753 1.16098C46.2449 2.26309 46.3445 2.80623 46.5511 3.01671C46.7576 3.2272 46.959 3.75672 46.7753 4.60087C46.4488 6.51695 45.8447 10.8289 46.0406 12.748C46.2366 14.6671 45.3059 15.871 44.8161 16.2331C43.0529 18.116 42.8977 20.6084 43.0406 21.6193V30.219V38.8187C43.4896 39.2412 45.5753 40.068 50.3264 39.9955C55.0775 39.9231 56.7551 39.1808 57 38.8187V30.219V21.6193C57 18.6863 55.7347 16.8064 55.102 16.2331C53.8775 15.4003 53.8775 13.5785 53.8775 12.748C53.6326 10.4245 53.0693 5.54232 52.7754 4.60087C52.4816 3.65943 52.7754 3.1525 52.9591 3.01671C53.302 2.54599 52.8163 1.58342 52.5305 1.16098C53.1183 0.400584 52.7754 0.150134 52.5305 0.119958Z" fill="#231F20"/>
<path d="M1 23C1 20.2386 3.23858 18 6 18H52C54.7614 18 57 20.2386 57 23V40H1V23Z" fill="#231F20"/>
<path d="M24.5384 29V21.79H24.5104L22.7744 22.616L22.4244 21.02L24.8464 19.9H26.5964V29H24.5384ZM36.056 29H29.602V27.712L30.764 26.662C31.8467 25.6913 32.612 24.9307 33.06 24.38C33.508 23.82 33.7367 23.288 33.746 22.784C33.746 22.392 33.62 22.0747 33.368 21.832C33.1253 21.58 32.7567 21.454 32.262 21.454C31.6367 21.454 30.988 21.7013 30.316 22.196L29.714 20.684C30.526 20.0587 31.5153 19.746 32.682 19.746C33.69 19.746 34.474 20.012 35.034 20.544C35.594 21.0667 35.874 21.7527 35.874 22.602C35.874 23.302 35.664 23.96 35.244 24.576C34.824 25.192 34.2267 25.8407 33.452 26.522L32.612 27.222V27.25H36.056V29Z" fill="#FDFFFC"/>
</svg>
