<svg width="66" height="40" viewBox="0 0 66 40" fill="none" xmlns="http://www.w3.org/2000/svg">
<path d="M1 9.32644V33.9824C1 34.6556 1.45029 35.323 2.30171 35.9184C3.30781 37.787 7.2259 39.2381 11.315 39.2381C15.4042 39.2381 19.3227 37.787 20.3288 35.9188C21.1806 35.3234 21.6301 34.6563 21.6301 33.9828V9.32606C21.6316 9.30435 21.6621 8.38854 20.8358 7.17177C20.296 6.37711 19.7566 5.78054 19.4979 5.51006C19.5543 5.18701 19.5619 4.77101 19.5619 4.7653V4.09139C19.5623 2.17635 15.3135 1.14282 11.315 1.14282C7.3181 1.14282 3.06819 2.17635 3.06819 4.09139V4.7653C3.06819 4.77063 3.07543 5.18282 3.13219 5.50549C2.85752 5.78397 2.28305 6.40339 1.78819 7.18092C1.00724 8.40949 1.00038 9.28949 1 9.32644ZM11.315 6.33025C8.38667 6.33025 5.84571 5.80835 4.60152 5.04949C4.64381 3.99958 7.82324 3.04873 11.3154 3.04873C14.8069 3.04873 17.9874 3.99997 18.0282 5.05025C16.7844 5.80911 14.2438 6.33063 11.315 6.33025Z" fill="#231F20"/>
<path d="M7.07623 5.39161C7.64804 5.65446 8.16766 5.82094 8.7608 5.85599C10.0229 5.92989 10.8218 5.30894 11.5837 5.06399C11.9825 4.93523 12.4515 4.82818 12.8953 4.71961C13.1886 4.64799 13.5616 4.57294 13.7029 4.44951C13.9448 4.23694 13.5501 3.93713 13.1856 3.76989C12.821 3.60265 12.1002 3.38932 11.4503 3.41408C11.072 3.42856 10.7646 3.5337 10.488 3.61332C10.0698 3.73332 9.64842 3.86246 9.18709 3.96227C8.30785 4.15313 6.38023 4.25561 6.2469 4.70018C6.1848 4.90894 6.5048 5.12837 7.07623 5.39161ZM10.8587 4.05637C11.1703 3.97332 11.6286 4.00075 11.8816 4.11656C12.1338 4.23237 12.0854 4.39351 11.773 4.47656C11.4614 4.55884 11.0031 4.53218 10.7509 4.41599C10.4979 4.30018 10.5463 4.13904 10.8587 4.05637ZM7.79052 4.54932C8.40461 4.38665 9.3048 4.43961 9.80233 4.6678C10.2983 4.89637 10.2031 5.21332 9.58899 5.37637C8.97528 5.5398 8.07318 5.48684 7.57642 5.25827C7.08004 5.03046 7.17566 4.71275 7.79052 4.54932Z" fill="#231F20"/>
<path d="M22.6304 9.18362V33.8396C22.6304 34.5128 23.0807 35.1802 23.9321 35.7756C24.9382 37.6442 28.8563 39.0952 32.9454 39.0952C37.0346 39.0952 40.953 37.6442 41.9591 35.776C42.8109 35.1806 43.2605 34.5135 43.2605 33.84V9.18324C43.262 9.16152 43.2925 8.24571 42.4662 7.02895C41.9264 6.23429 41.3869 5.63771 41.1283 5.36724C41.1847 5.04419 41.1923 4.62819 41.1923 4.62248V3.94857C41.1927 2.03352 36.9439 1 32.9454 1C28.9485 1 24.6986 2.03352 24.6986 3.94857V4.62248C24.6986 4.62781 24.7058 5.04 24.7626 5.36267C24.4879 5.64114 23.9134 6.26057 23.4186 7.0381C22.6376 8.26667 22.6308 9.14667 22.6304 9.18362ZM32.9454 6.18743C30.017 6.18743 27.4761 5.66552 26.2319 4.90667C26.2742 3.85676 29.4536 2.9059 32.9458 2.9059C36.4372 2.9059 39.6178 3.85714 39.6586 4.90743C38.4148 5.66629 35.8742 6.18781 32.9454 6.18743Z" fill="#231F20"/>
<path d="M28.7066 5.24878C29.2784 5.51164 29.798 5.67812 30.3912 5.71317C31.6533 5.78707 32.4521 5.16612 33.214 4.92117C33.6129 4.7924 34.0818 4.68536 34.5256 4.57678C34.819 4.50517 35.1919 4.43012 35.3333 4.30669C35.5752 4.09412 35.1805 3.79431 34.8159 3.62707C34.4514 3.45983 33.7306 3.2465 33.0807 3.27126C32.7024 3.28574 32.395 3.39088 32.1184 3.4705C31.7001 3.5905 31.2788 3.71964 30.8175 3.81945C29.9382 4.01031 28.0106 4.11278 27.8773 4.55736C27.8152 4.76612 28.1352 4.98555 28.7066 5.24878ZM32.4891 3.91355C32.8007 3.8305 33.259 3.85793 33.5119 3.97374C33.7641 4.08955 33.7157 4.25069 33.4034 4.33374C33.0917 4.41602 32.6335 4.38936 32.3813 4.27317C32.1283 4.15736 32.1767 3.99621 32.4891 3.91355ZM29.4209 4.4065C30.035 4.24383 30.9352 4.29678 31.4327 4.52497C31.9287 4.75355 31.8335 5.0705 31.2194 5.23355C30.6056 5.39697 29.7036 5.34402 29.2068 5.11545C28.7104 4.88764 28.806 4.56993 29.4209 4.4065Z" fill="#231F20"/>
<path d="M44.2607 9.18362V33.8396C44.2607 34.5128 44.711 35.1802 45.5625 35.7756C46.5686 37.6442 50.4866 39.0952 54.5758 39.0952C58.6649 39.0952 62.5834 37.6442 63.5895 35.776C64.4413 35.1806 64.8908 34.5135 64.8908 33.84V9.18324C64.8924 9.16152 64.9228 8.24571 64.0966 7.02895C63.5567 6.23429 63.0173 5.63771 62.7586 5.36724C62.815 5.04419 62.8226 4.62819 62.8226 4.62248V3.94857C62.823 2.03352 58.5743 1 54.5758 1C50.5788 1 46.3289 2.03352 46.3289 3.94857V4.62248C46.3289 4.62781 46.3362 5.04 46.3929 5.36267C46.1183 5.64114 45.5438 6.26057 45.0489 7.0381C44.268 8.26667 44.2611 9.14667 44.2607 9.18362ZM54.5758 6.18743C51.6474 6.18743 49.1065 5.66552 47.8623 4.90667C47.9046 3.85676 51.084 2.9059 54.5762 2.9059C58.0676 2.9059 61.2482 3.85714 61.2889 4.90743C60.0451 5.66629 57.5046 6.18781 54.5758 6.18743Z" fill="#231F20"/>
<path d="M50.337 5.24878C50.9088 5.51164 51.4284 5.67812 52.0215 5.71317C53.2836 5.78707 54.0825 5.16612 54.8444 4.92117C55.2433 4.7924 55.7122 4.68536 56.156 4.57678C56.4494 4.50517 56.8223 4.43012 56.9636 4.30669C57.2055 4.09412 56.8109 3.79431 56.4463 3.62707C56.0817 3.45983 55.361 3.2465 54.7111 3.27126C54.3328 3.28574 54.0254 3.39088 53.7488 3.4705C53.3305 3.5905 52.9092 3.71964 52.4478 3.81945C51.5686 4.01031 49.641 4.11278 49.5076 4.55736C49.4455 4.76612 49.7655 4.98555 50.337 5.24878ZM54.1194 3.91355C54.4311 3.8305 54.8894 3.85793 55.1423 3.97374C55.3945 4.08955 55.3461 4.25069 55.0337 4.33374C54.7221 4.41602 54.2638 4.38936 54.0116 4.27317C53.7587 4.15736 53.8071 3.99621 54.1194 3.91355ZM51.0513 4.4065C51.6654 4.24383 52.5655 4.29678 53.0631 4.52497C53.5591 4.75355 53.4638 5.0705 52.8497 5.23355C52.236 5.39697 51.3339 5.34402 50.8372 5.11545C50.3408 4.88764 50.4364 4.56993 51.0513 4.4065Z" fill="#231F20"/>
<rect x="1" y="17" width="64" height="23" fill="#231F20"/>
<path d="M27.5384 29V21.79H27.5104L25.7744 22.616L25.4244 21.02L27.8464 19.9H29.5964V29H27.5384ZM39.056 29H32.602V27.712L33.764 26.662C34.8467 25.6913 35.612 24.9307 36.06 24.38C36.508 23.82 36.7367 23.288 36.746 22.784C36.746 22.392 36.62 22.0747 36.368 21.832C36.1253 21.58 35.7567 21.454 35.262 21.454C34.6367 21.454 33.988 21.7013 33.316 22.196L32.714 20.684C33.526 20.0587 34.5153 19.746 35.682 19.746C36.69 19.746 37.474 20.012 38.034 20.544C38.594 21.0667 38.874 21.7527 38.874 22.602C38.874 23.302 38.664 23.96 38.244 24.576C37.824 25.192 37.2267 25.8407 36.452 26.522L35.612 27.222V27.25H39.056V29Z" fill="#FDFFFC"/>
</svg>
