<svg width="70" height="70" viewBox="0 0 70 70" fill="none" xmlns="http://www.w3.org/2000/svg">
<rect width="70" height="70" rx="35" fill="white"/>
<path d="M24.254 38.488L24.524 39.676C23.816 40.012 22.982 40.18 22.022 40.18C20.714 40.18 19.664 39.772 18.872 38.956C18.08 38.14 17.684 37.066 17.684 35.734C17.684 34.378 18.11 33.268 18.962 32.404C19.826 31.528 20.96 31.09 22.364 31.09C23.252 31.09 23.984 31.246 24.56 31.558L24.2 32.764C23.672 32.488 23.06 32.35 22.364 32.35C21.404 32.35 20.648 32.668 20.096 33.304C19.556 33.928 19.286 34.708 19.286 35.644C19.286 36.628 19.568 37.42 20.132 38.02C20.708 38.608 21.434 38.902 22.31 38.902C22.982 38.902 23.63 38.764 24.254 38.488ZM26.3824 40V27.22H27.9664V40H26.3824ZM32.2203 40H30.6363V31.288H32.2203V40ZM31.4103 29.812H31.3923C31.1163 29.812 30.8883 29.716 30.7083 29.524C30.5283 29.332 30.4383 29.104 30.4383 28.84C30.4383 28.552 30.5283 28.318 30.7083 28.138C30.9003 27.946 31.1403 27.85 31.4283 27.85C31.7163 27.85 31.9503 27.946 32.1303 28.138C32.3103 28.318 32.4003 28.552 32.4003 28.84C32.4003 29.116 32.3103 29.35 32.1303 29.542C31.9503 29.722 31.7103 29.812 31.4103 29.812ZM40.795 38.488L41.065 39.676C40.357 40.012 39.523 40.18 38.563 40.18C37.255 40.18 36.205 39.772 35.413 38.956C34.621 38.14 34.225 37.066 34.225 35.734C34.225 34.378 34.651 33.268 35.503 32.404C36.367 31.528 37.501 31.09 38.905 31.09C39.793 31.09 40.525 31.246 41.101 31.558L40.741 32.764C40.213 32.488 39.601 32.35 38.905 32.35C37.945 32.35 37.189 32.668 36.637 33.304C36.097 33.928 35.827 34.708 35.827 35.644C35.827 36.628 36.109 37.42 36.673 38.02C37.249 38.608 37.975 38.902 38.851 38.902C39.523 38.902 40.171 38.764 40.795 38.488ZM44.5074 27.22V35.284H44.5434C44.7834 34.948 45.0354 34.618 45.2994 34.294L47.8734 31.288H49.7634L46.3974 34.87L50.2314 40H48.3054L45.3174 35.824L44.5074 36.724V40H42.9234V27.22H44.5074Z" fill="black"/>
<path d="M42.7297 52.7297C42.7421 52.7174 42.7544 52.7194 42.7606 52.7216L50.3572 54.8316C50.3634 54.8336 50.3757 54.8378 50.3799 54.8563C50.3841 54.8748 50.3737 54.8829 50.3696 54.8871L48.6113 56.2834C48.4447 56.4171 48.3399 56.6145 48.3275 56.8284C48.3152 57.0423 48.3954 57.252 48.5456 57.4022L52.2741 61.1308C52.2865 61.1431 52.2865 61.1636 52.2741 61.176L51.176 62.2721C51.1657 62.2824 51.1432 62.2824 51.1308 62.2721L47.4023 58.5435C47.2624 58.4038 47.069 58.3235 46.8717 58.3235C46.8573 58.3235 46.8428 58.3235 46.8285 58.3255C46.6146 58.3378 46.415 58.4407 46.2835 58.6092L44.8872 60.3675C44.883 60.3737 44.8748 60.384 44.8563 60.3779C44.8378 60.3737 44.8336 60.3614 44.8316 60.3552L42.7216 52.7608C42.7196 52.7546 42.7154 52.7421 42.7297 52.7297Z" fill="white"/>
<path fill-rule="evenodd" clip-rule="evenodd" d="M42.0285 52.9519L44.1386 60.5486C44.2146 60.8221 44.4347 61.0277 44.7124 61.0832C44.99 61.1388 45.2738 61.0359 45.4507 60.8138L46.847 59.0556C46.8491 59.0535 46.8552 59.0452 46.8697 59.0432C46.8841 59.0432 46.8902 59.0494 46.8944 59.0514L50.6229 62.7799C50.7648 62.9218 50.954 63 51.1536 63C51.3531 63 51.5423 62.9218 51.6842 62.7799L52.7823 61.6838C53.0743 61.3918 53.0743 60.9146 52.7823 60.6206L49.0537 56.8942C49.0517 56.8922 49.0434 56.8839 49.0456 56.8695C49.0456 56.8552 49.0537 56.849 49.0579 56.8469L50.8162 55.4505C51.0382 55.2737 51.1411 54.9919 51.0856 54.7122C51.0301 54.4346 50.8244 54.2146 50.5509 54.1384L42.9521 52.0285C42.6868 51.9545 42.4133 52.0265 42.2199 52.2219C42.0266 52.4171 41.9545 52.6887 42.0285 52.9519ZM42.7606 52.7216C42.7544 52.7194 42.7421 52.7174 42.7297 52.7297C42.7154 52.7421 42.7196 52.7546 42.7216 52.7608L44.8316 60.3552C44.8336 60.3614 44.8378 60.3737 44.8563 60.3779C44.8748 60.384 44.883 60.3737 44.8872 60.3675L46.2835 58.6092C46.415 58.4407 46.6146 58.3378 46.8285 58.3255C46.8428 58.3235 46.8573 58.3235 46.8717 58.3235C47.069 58.3235 47.2624 58.4038 47.4023 58.5435L51.1308 62.2721C51.1432 62.2824 51.1657 62.2824 51.176 62.2721L52.2741 61.176C52.2865 61.1636 52.2865 61.1431 52.2741 61.1308L48.5456 57.4022C48.3954 57.252 48.3152 57.0423 48.3275 56.8284C48.3399 56.6145 48.4447 56.4171 48.6113 56.2834L50.3696 54.8871C50.3737 54.8829 50.3841 54.8748 50.3799 54.8563C50.3757 54.8378 50.3634 54.8336 50.3572 54.8316L42.7606 52.7216Z" fill="black"/>
</svg>
