<svg width="60" height="60" viewBox="0 0 60 60" fill="none" xmlns="http://www.w3.org/2000/svg">
<rect width="60" height="60" rx="30" fill="#FECC00"/>
<path d="M29.5487 36.1944C30.212 35.1066 33.7222 30.9902 38.4186 24.7077C36.9535 24.2482 35.9767 23.329 35 21.9502C34.0233 20.5715 34.0233 18.2735 34.0233 17.814L14.9767 17.814C14.6117 17.8133 14.2766 18.0044 14.1086 18.3095C13.9409 18.6156 13.9691 18.984 14.1817 19.2641C18.9466 25.5424 26.1447 35.1023 26.8179 36.1947C26.8754 36.4108 26.9033 36.6326 26.9009 36.8554V47.6584C26.9009 48.6313 25.6963 49.0029 23.4872 49.3426C22.4143 49.5033 21.7071 49.6135 21.2829 50.0677C21.0172 50.3434 20.9447 50.7387 21.0975 51.0822C21.3802 51.6696 21.785 51.8211 25.1061 51.9357C26.657 52 28.1834 52 28.1834 52C34.8353 52 35.0107 51.6328 35.2693 51.0822C35.4329 50.7371 35.3683 50.3338 35.1036 50.0495C34.6794 49.5904 33.9722 49.4851 32.8993 49.3244C30.6704 48.9847 29.4856 48.613 29.4856 47.6402V36.8552C29.4765 36.6334 29.4977 36.4111 29.5487 36.1944Z" fill="white"/>
<path d="M42.3255 10C38.556 10 35.4883 13.0675 35.4883 16.8372C35.4883 20.607 38.5558 23.6744 42.3255 23.6744C46.0953 23.6744 49.1627 20.6069 49.1627 16.8372C49.1624 13.0677 46.0949 10 42.3248 10H42.3255ZM44.9865 18.4264C45.2822 18.7221 45.2822 19.2395 44.9865 19.5352C44.8387 19.6829 44.6168 19.7569 44.4322 19.7569C44.2474 19.7569 44.0256 19.6829 43.8779 19.5352L42.3257 17.983L40.7735 19.5352C40.6258 19.6829 40.4038 19.7569 40.2192 19.7569C40.0344 19.7569 39.8127 19.6829 39.6649 19.5352C39.3692 19.2395 39.3692 18.7221 39.6649 18.4264L41.2172 16.8742L39.6645 15.2848C39.3688 14.9891 39.3688 14.4718 39.6645 14.176C39.9602 13.8803 40.4776 13.8803 40.7733 14.176L42.3255 15.7283L43.8777 14.176C44.1734 13.8803 44.6908 13.8803 44.9865 14.176C45.2822 14.4717 45.2822 14.9891 44.9865 15.2848L43.4343 16.8371L44.9865 18.4264Z" fill="white"/>
</svg>
