<svg width="20" height="13" viewBox="0 0 20 13" fill="none" xmlns="http://www.w3.org/2000/svg">
<path fill-rule="evenodd" clip-rule="evenodd" d="M15.5283 3.57353C15.0055 3.57353 14.5038 3.66488 14.0375 3.83128C14.0375 3.83128 13.7294 2.71561 14.7645 0.607441L13.3599 0.0210313L13.3089 0.00187398C13.0921 -0.0795016 11.6273 3.49564 11.5297 3.79138C10.9154 5.65098 10.3406 8.2778 11.2552 10.1121C12.0631 11.732 13.7697 12.5939 15.5283 12.5939C17.998 12.5939 20 10.5747 20 8.0837C20 5.59272 17.998 3.57353 15.5283 3.57353ZM4.75023 3.57353C4.22739 3.57353 3.72574 3.66488 3.2594 3.83127C3.2594 3.83127 2.95129 2.71561 3.98645 0.60744L2.5818 0.0210303L2.53079 0.00187303C2.31402 -0.0795025 0.849256 3.49564 0.751626 3.79138C0.137121 5.65098 -0.437516 8.2778 0.4771 10.1121C1.28498 11.732 2.99163 12.5939 4.75023 12.5939C7.21986 12.5939 9.22191 10.5747 9.22191 8.0837C9.22191 5.59272 7.21986 3.57353 4.75023 3.57353Z" fill="#231F20"/>
</svg>
