<svg width="60" height="60" viewBox="0 0 60 60" fill="none" xmlns="http://www.w3.org/2000/svg">
<rect width="60" height="60" rx="30" fill="#FECC00"/>
<path d="M36.4295 14.619C36.4295 16.6176 34.809 18.2381 32.8104 18.2381C30.8119 18.2381 29.1914 16.6176 29.1914 14.619C29.1914 12.6205 30.8119 11 32.8104 11C34.809 11 36.4295 12.6205 36.4295 14.619Z" fill="white"/>
<path d="M38.9348 32.9256C38.9348 30.2531 37.8941 27.739 36.0033 25.8478L34.0291 23.8735L28.3271 29.5755L38.9125 33.3567C38.9193 33.2124 38.9347 33.0709 38.9347 32.9257L38.9348 32.9256ZM34.8701 29.7247C34.3094 29.7247 33.8539 29.2692 33.8539 28.7085C33.8539 28.1478 34.3094 27.6924 34.8701 27.6924C35.4308 27.6924 35.8863 28.1478 35.8863 28.7085C35.8863 29.2692 35.4308 29.7247 34.8701 29.7247Z" fill="white"/>
<path d="M19.874 38.0286L21.8483 40.0029C23.7405 41.8941 26.2545 42.9348 28.9261 42.9348C29.0712 42.9348 29.2128 42.9194 29.357 42.9135L25.5758 32.3281L19.874 38.0286ZM24.709 39.8863C24.1483 39.8863 23.6928 39.4308 23.6928 38.8701C23.6928 38.3094 24.1483 37.8539 24.709 37.8539C25.2697 37.8539 25.7252 38.3094 25.7252 38.8701C25.7252 39.4308 25.2697 39.8863 24.709 39.8863Z" fill="white"/>
<path d="M38.6106 35.4064L27.4014 31.4016L31.4053 42.6108C34.9324 41.7076 37.7074 38.9325 38.6106 35.4064ZM32.8379 35.8219C33.3986 35.8219 33.8541 36.2774 33.8541 36.8381C33.8541 37.3988 33.3986 37.8542 32.8379 37.8542C32.2772 37.8542 31.8218 37.3988 31.8218 36.8381C31.8218 36.2774 32.2772 35.8219 32.8379 35.8219Z" fill="white"/>
<path d="M36.9031 21L35.4664 22.4367L37.4407 24.411C39.7157 26.6878 40.9678 29.711 40.9678 32.9259C40.9678 39.5664 35.5666 44.9678 28.9259 44.9678C25.7108 44.9678 22.6864 43.7157 20.4114 41.4407L18.4372 39.4664L17 40.9031L18.9743 42.8774C21.634 45.5366 25.167 47.0001 28.9259 47.0001C36.6864 47.0001 43.0001 40.6867 43.0001 32.9259C43.0001 29.167 41.5366 25.633 38.8774 22.9746L36.9031 21Z" fill="white"/>
<path d="M48.557 24.5241C46.4142 24.1303 44.2701 25.0663 43.0744 26.8548C43.9886 29.0889 44.3126 31.5135 44.0202 33.9465C44.7523 34.5842 45.6278 35.0247 46.5943 35.2024C49.5388 35.7436 52.3736 33.7891 52.9148 30.8446C53.456 27.9002 51.5015 25.0654 48.5571 24.5242L48.557 24.5241ZM49.3553 30.1904C49.5357 29.2087 48.8843 28.264 47.9027 28.0835L48.2299 26.3038C50.1927 26.6646 51.4958 28.5546 51.135 30.5175L49.3553 30.1904Z" fill="white"/>
<path d="M21.0476 30.0001C21.0476 27.5056 19.0183 25.4763 16.5238 25.4763C14.0292 25.4763 12 27.5056 12 30.0001C12 32.4947 14.0292 34.5239 16.5238 34.5239C19.0183 34.5239 21.0476 32.4947 21.0476 30.0001ZM16.5238 29.0954C16.0246 29.0954 15.619 29.5009 15.619 30.0001H13.8095C13.8095 28.5036 15.0273 27.2858 16.5238 27.2858V29.0954Z" fill="white"/>
</svg>
