<svg width="30" height="30" viewBox="0 0 30 30" fill="none" xmlns="http://www.w3.org/2000/svg">
<path d="M24.0404 4H7.05161C5.36639 4 4 5.4278 4 7.16495V19.4202C4 21.1812 5.36639 22.5852 7.02884 22.5852H11.2419C11.5835 22.5852 11.9251 22.728 12.1756 22.9659L14.9539 25.7501C15.2728 26.0833 15.7738 26.0833 16.0926 25.7501L18.8709 22.9659C19.1214 22.728 19.463 22.5852 19.8046 22.5852H24.0177C25.7029 22.5852 27.0465 21.1574 27.0465 19.4202V7.18875C27.0921 5.4278 25.7257 4 24.0404 4Z" stroke="#F2F5F5" stroke-width="1.65287" stroke-linecap="round" stroke-linejoin="round"/>
<path d="M8 10H21.1864" stroke="#F2F5F5" stroke-width="1.57774" stroke-linecap="round" stroke-linejoin="round"/>
<path d="M8 14.3721H15.4954" stroke="#F2F5F5" stroke-width="1.57774" stroke-linecap="round" stroke-linejoin="round"/>
</svg>
