<svg width="60" height="60" viewBox="0 0 60 60" fill="none" xmlns="http://www.w3.org/2000/svg">
<rect width="60" height="60" rx="30" fill="#FECC00"/>
<path d="M46.1738 39.4476C46.1139 39.8673 45.8743 40.2273 45.515 40.4673L32.7555 48.5639C31.737 49.2236 30.4792 49.3437 29.3411 48.8039L21.4339 45.3252C21.0746 45.1452 20.5953 45.2054 20.2958 45.3852L18.0793 46.7647C17.7798 46.9447 17.3603 46.8246 17.2407 46.5247L13.8262 39.3874C13.7066 39.0875 13.8262 38.7277 14.0659 38.6076L19.4571 35.7287C24.9082 32.79 25.2678 38.3677 33.774 38.6076C34.8523 38.6676 35.7508 39.3874 36.0503 40.3469L41.142 37.288C42.7594 36.3285 44.7362 36.7482 45.8743 38.2476C46.1137 38.6079 46.2334 39.0276 46.1736 39.4476L46.1738 39.4476Z" fill="white"/>
<path d="M37.428 35.0091C33.1151 34.1694 20.7749 34.829 18.7381 20.3145C18.199 16.4159 17.5401 13.4172 16.9412 12.1578C16.8215 11.9179 16.8813 11.6779 17.0609 11.4982C17.1806 11.3783 17.3604 11.3181 17.48 11.3181C17.5399 11.3181 17.6599 11.3181 17.7197 11.2582C28.8017 8.8592 33.8334 16.1164 34.0734 27.5122C34.1332 30.5112 35.7507 32.9701 38.5063 34.0497C39.1651 34.2896 39.1651 35.4894 37.428 35.0095L37.428 35.0091Z" fill="white"/>
<path d="M46.1739 14.4369C45.6946 15.3965 45.2155 17.6756 44.796 20.6147C43.9574 26.9722 40.9624 29.491 36.3495 30.8708C35.6907 29.9113 35.331 28.7717 35.2712 27.4521C35.2114 24.2135 34.7919 21.3945 34.0134 18.995C34.7324 17.2558 35.6907 15.8762 37.0087 14.8565C40.1835 12.5174 44.1371 13.1774 45.6946 13.5372C45.8142 13.5372 45.9941 13.5971 46.0539 13.7172C46.2334 13.897 46.2935 14.1968 46.1736 14.4368L46.1739 14.4369Z" fill="white"/>
</svg>
