<svg width="30" height="30" viewBox="0 0 30 30" fill="none" xmlns="http://www.w3.org/2000/svg">
<path d="M15.0067 2C19.9533 2 23.9667 6.01333 23.9667 10.96C23.9667 12.5933 23.5233 14.2033 22.6833 15.6267C22.4733 15.9533 20.5133 18.7767 18.3667 21.8567C16.22 24.9367 14.7021 24.9867 12.9844 23.4233C12.6329 23.1035 11.7633 21.8567 11.7633 21.8567C9.73333 18.9867 7.75 16.14 7.44667 15.7433C6.51333 14.3433 6.02333 12.71 6 11.03C6.04667 6.08333 10.0833 2 15.0067 2Z" stroke="#F2F5F5" stroke-width="1.59133" stroke-linejoin="round"/>
<path d="M15.0056 14.5298C17.2092 14.5298 18.9956 12.7434 18.9956 10.5398C18.9956 8.33619 17.2092 6.5498 15.0056 6.5498C12.802 6.5498 11.0156 8.33619 11.0156 10.5398C11.0156 12.7434 12.802 14.5298 15.0056 14.5298Z" stroke="#F2F5F5" stroke-width="1.59133" stroke-linejoin="round"/>
<path d="M11.9844 27.9238H18.3777" stroke="#F2F5F5" stroke-width="1.59133" stroke-miterlimit="10" stroke-linecap="round"/>
</svg>
