<svg width="28" height="28" viewBox="0 0 28 28" fill="none" xmlns="http://www.w3.org/2000/svg">
<g clip-path="url(#clip0_801_662)">
<path d="M7.77745 -0.000488281C2.70946 -0.000488281 -0.000488281 2.33289 -0.000488281 7.77745V20.2222C-0.000488281 25.6667 2.70946 28.0001 7.77745 28.0001H20.2222C25.6667 28.0001 28.0001 25.6667 28.0001 20.2222V7.77745C28.0001 2.33289 25.6667 -0.000488281 20.2222 -0.000488281H7.77745ZM7.77745 2.39956H20.2222C24.5 2.39956 25.6 5.20451 25.6 7.77745V20.2222C25.6 22.7951 23.9167 25.6 20.2222 25.6H7.77745C4.66628 25.6 2.39956 23.9354 2.39956 20.0277V7.583C2.39956 5.01006 4.08293 2.39956 7.77745 2.39956ZM21.3221 4.92745C20.9096 4.92745 20.5139 5.09134 20.2222 5.38307C19.9304 5.6748 19.7665 6.07047 19.7665 6.48304C19.7665 6.8956 19.9304 7.29127 20.2222 7.583C20.5139 7.87473 20.9096 8.03862 21.3221 8.03862C21.7347 8.03862 22.1304 7.87473 22.4221 7.583C22.7138 7.29127 22.8777 6.8956 22.8777 6.48304C22.8777 6.07047 22.7138 5.6748 22.4221 5.38307C22.1304 5.09134 21.7347 4.92745 21.3221 4.92745ZM13.9998 6.22186C9.71105 6.22186 6.22186 9.71105 6.22186 13.9998C6.22186 18.2886 9.71105 21.7777 13.9998 21.7777C18.2886 21.7777 21.7777 18.2886 21.7777 13.9998C21.7777 9.71105 18.2886 6.22186 13.9998 6.22186ZM13.9998 9.03221C16.5727 9.03221 18.9675 11.1301 18.9675 13.9998C18.9675 16.8695 16.5727 18.9677 13.9998 18.9677C11.4269 18.9677 9.03205 17.1609 9.03205 13.9998C9.03205 10.8387 11.4269 9.03221 13.9998 9.03221Z" fill="#231F20"/>
</g>
<defs>
<clipPath id="clip0_801_662">
<rect width="28" height="28" fill="white"/>
</clipPath>
</defs>
</svg>
