<svg width="28" height="28" viewBox="0 0 28 28" fill="none" xmlns="http://www.w3.org/2000/svg">
<g clip-path="url(#clip0_701_683)">
<path d="M7.7777 -0.000732422C2.70971 -0.000732422 -0.000244141 2.33265 -0.000244141 7.77721V20.2219C-0.000244141 25.6665 2.70971 27.9998 7.7777 27.9998H20.2224C25.667 27.9998 28.0003 25.6665 28.0003 20.2219V7.77721C28.0003 2.33265 25.667 -0.000732422 20.2224 -0.000732422H7.7777ZM7.7777 2.39932H20.2224C24.5003 2.39932 25.6003 5.20427 25.6003 7.77721V20.2219C25.6003 22.7949 23.9169 25.5998 20.2224 25.5998H7.7777C4.66652 25.5998 2.39981 23.9352 2.39981 20.0275V7.58276C2.39981 5.00982 4.08317 2.39932 7.7777 2.39932ZM21.3224 4.9272C20.9098 4.9272 20.5141 5.0911 20.2224 5.38283C19.9307 5.67455 19.7668 6.07022 19.7668 6.48279C19.7668 6.89536 19.9307 7.29103 20.2224 7.58276C20.5141 7.87449 20.9098 8.03838 21.3224 8.03838C21.7349 8.03838 22.1306 7.87449 22.4223 7.58276C22.7141 7.29103 22.878 6.89536 22.878 6.48279C22.878 6.07022 22.7141 5.67455 22.4223 5.38283C22.1306 5.0911 21.7349 4.9272 21.3224 4.9272ZM14 6.22162C9.71129 6.22162 6.22211 9.7108 6.22211 13.9996C6.22211 18.2883 9.71129 21.7775 14 21.7775C18.2888 21.7775 21.778 18.2883 21.778 13.9996C21.778 9.7108 18.2888 6.22162 14 6.22162ZM14 9.03197C16.573 9.03197 18.9678 11.1298 18.9678 13.9996C18.9678 16.8693 16.573 18.9674 14 18.9674C11.4271 18.9674 9.03229 17.1607 9.03229 13.9996C9.03229 10.8384 11.4271 9.03197 14 9.03197Z" fill="#231F20"/>
</g>
<defs>
<clipPath id="clip0_701_683">
<rect width="28" height="28" fill="white"/>
</clipPath>
</defs>
</svg>
