<svg width="377" height="85" viewBox="0 0 377 85" fill="none" xmlns="http://www.w3.org/2000/svg">
<g clip-path="url(#clip0_984_1607)">
<path d="M16.5984 11.0599C20.1797 9.04023 24.2178 8.0381 28.2989 8.1562C32.3799 8.2743 36.3571 9.5084 39.8227 11.732C42.4321 13.5913 44.2755 16.3857 44.9933 19.5698C45.1826 20.3685 45.6269 21.0786 46.255 21.5858C46.883 22.0931 47.6583 22.3682 48.4563 22.3669H54.778C54.324 15.2374 51.6315 9.72559 46.7008 5.83141C41.7701 1.93722 35.3748 -0.00657245 27.515 1.66955e-05C20.4355 1.66955e-05 14.862 1.45292 10.0272 4.44769C5.19243 7.44246 2.35294 11.8308 2.18027 17.5041C2.07499 18.9645 2.26441 20.4315 2.7366 21.8128C3.20878 23.1941 3.9535 24.4596 4.92383 25.5297C6.8424 27.5558 9.45167 28.7221 12.7228 29.7401C16.9201 30.9 21.1762 31.8206 25.4718 32.4977C30.4697 33.3872 34.1054 34.1977 36.8777 34.9093C39.1986 35.3986 41.3686 36.4639 43.1994 38.0128C44.0136 38.8326 44.6427 39.8269 45.0423 40.9252C45.4418 42.0235 45.6019 43.1989 45.5113 44.368C45.511 46.1585 45.0058 47.9104 44.0572 49.4106C43.1086 50.9108 41.7575 52.0948 40.1681 52.8186C36.6164 54.6587 32.6893 55.5973 28.7142 55.5564C24.0872 55.6942 19.5232 54.4258 15.5911 51.9093C12.7825 50.0695 10.7327 47.2254 9.83538 43.9233C9.61643 43.1386 9.15526 42.4488 8.52174 41.9584C7.88821 41.4679 7.11682 41.2035 6.32439 41.2052H-0.390625C0.133786 48.4533 3.10119 54.0047 8.51157 57.8593C13.922 61.714 20.7169 63.6611 28.8964 63.7006C35.7457 63.7006 41.2712 62.4058 46.3363 59.5297C51.4013 56.6535 54.4327 52.3146 54.5766 46.7994C54.6925 45.2882 54.5035 43.7686 54.0214 42.3363C53.5393 40.9041 52.7746 39.5902 51.7754 38.4773C49.8569 36.4018 47.1613 35.107 43.8038 34.0494C39.5166 32.7794 35.156 31.789 30.7479 31.0843C24.0328 29.9082 19.3323 28.6727 16.1955 27.2297C14.7693 26.662 13.5554 25.6417 12.7293 24.3162C11.9033 22.9907 11.5079 21.4288 11.6005 19.8564C11.6048 18.0659 12.0695 16.3086 12.9475 14.7634C13.8254 13.2182 15.0851 11.9403 16.5984 11.0599Z" fill="#FDFFFC"/>
<path d="M100.067 0.0102539C87.6447 0.0102539 80.3637 7.46258 77.2844 18.3544V5.20909C77.2844 4.68573 77.1836 4.16756 76.9878 3.68465C76.7919 3.20175 76.505 2.76371 76.1436 2.39594C75.7822 2.02817 75.3535 1.73799 74.8824 1.54224C74.4113 1.34649 73.9072 1.24906 73.3993 1.2556H68.1136V79.673C68.1071 80.2006 68.2032 80.7241 68.3962 81.2127C68.5892 81.7014 68.8751 82.1453 69.2371 82.5183C69.5992 82.8914 70.0301 83.1859 70.5043 83.3848C70.9786 83.5836 71.4867 83.6826 71.9987 83.6759H77.2844V45.505C80.3637 56.1794 87.6447 63.7009 100.067 63.7009C116.068 63.7009 127.676 50.101 127.676 31.8556C127.676 13.6103 116.078 0.0102539 100.067 0.0102539ZM96.8922 56.3969C84.6229 56.3969 77.2748 48.1242 77.2748 31.8556C77.2748 15.9033 84.6229 7.31432 96.8922 7.31432C108.241 7.31432 117.488 16.8225 117.488 31.8556C117.488 46.8888 108.279 56.3969 96.8922 56.3969Z" fill="#FDFFFC"/>
<path d="M170.009 0C160.877 0 152.09 7.90697 149.385 18.6407V5.20872C149.385 4.16019 148.98 3.1546 148.261 2.41318C147.541 1.67175 146.565 1.25523 145.547 1.25523H140.262V58.5808C140.26 59.1073 140.36 59.6289 140.555 60.1157C140.749 60.6025 141.035 61.0449 141.396 61.4177C141.757 61.7904 142.186 62.0862 142.658 62.288C143.13 62.4897 143.636 62.5936 144.147 62.5936H149.423V29.493C149.605 17.1384 157.174 6.9186 167.784 7.42267C175.362 7.77848 178.681 14.0645 179.468 22.4163C179.564 23.3796 180 24.273 180.693 24.927C181.386 25.5811 182.288 25.9503 183.228 25.9645H188.552C189.425 6.07848 181.031 0 170.009 0Z" fill="#FDFFFC"/>
<path d="M239.162 7.31261C237.055 4.6585 234.246 2.69121 231.075 1.64924L230.116 1.33296C222.796 -0.999598 214.71 -0.0902944 207.649 2.96378C204.382 4.23347 201.471 6.31864 199.179 9.03238C197.836 10.7521 197.011 13.2428 198.171 15.101C199.86 17.7696 203.755 16.4155 206.114 15.3876C209.366 13.9644 212.292 12.5707 215.909 12.5707C218.93 12.5707 222.374 14.5475 222.278 18.076C222.182 21.6045 218.998 23.5812 216.465 25.2614C212.705 27.7521 209.059 29.887 205.241 32.1109C200.397 34.9475 195.649 38.4364 192.972 43.4574C190.296 48.4783 190.161 55.3178 193.999 59.4986C196.819 62.5428 201.126 63.6004 205.203 63.6894C216.302 63.9364 225.502 57.5812 233.55 50.3463V58.5004C233.549 59.0269 233.648 59.5485 233.843 60.0353C234.038 60.5221 234.324 60.9645 234.685 61.3373C235.045 61.71 235.474 62.0058 235.946 62.2075C236.418 62.4093 236.924 62.5132 237.435 62.5132H242.721V27.3469C242.813 23.8087 242.71 20.268 242.414 16.7417C242.169 13.3554 241.045 10.099 239.162 7.31261ZM233.588 47.4504C232.034 48.7748 229.953 50.3562 226.758 52.6789C219.842 57.7196 209.904 60.319 205.289 55.0609C200.886 50.0498 202.91 43.0225 206.978 38.5452C210.393 34.7893 214.508 31.6266 218.134 28.0882C221.405 24.8957 225.386 21.1103 224.571 16.4353C224.36 15.184 223.819 14.0167 223.007 13.0614C222.194 12.106 221.143 11.3994 219.966 11.019C217.597 10.0306 213.769 10.2283 210.613 10.5347C209.491 10.6434 207.467 10.8806 207.083 9.54633C206.613 7.9847 208.599 6.36377 209.606 5.59284C213.491 2.72656 219.074 1.39226 223.679 2.93412C231.286 5.47423 233.588 13.994 233.588 21.5748V47.4504Z" fill="#FDFFFC"/>
<path d="M377.407 16.7417C377.146 13.3526 376.01 10.0972 374.117 7.31261C372.008 4.65608 369.195 2.68847 366.021 1.64924L365.061 1.33296C357.742 -0.999598 349.713 -0.0902944 342.604 2.96378C339.334 4.23203 336.42 6.3173 334.124 9.03238C332.791 10.7521 331.956 13.2428 333.165 15.101C334.844 17.7696 338.748 16.4155 341.098 15.3876C344.35 13.9644 347.286 12.5707 350.902 12.5707C353.914 12.5707 357.358 14.5475 357.262 18.076C357.166 21.6045 353.991 23.5812 351.449 25.2614C347.689 27.7521 344.043 29.887 340.235 32.1109C335.391 34.9475 330.642 38.4364 327.956 43.4574C325.27 48.4783 325.155 55.3178 328.992 59.4986C331.803 62.5428 336.11 63.6004 340.197 63.6893C351.296 63.9364 360.485 57.5812 368.534 50.3463V58.5004C368.534 59.5647 368.944 60.5853 369.675 61.3379C370.405 62.0904 371.396 62.5132 372.429 62.5132H377.705V27.3469C377.8 23.8089 377.7 20.2682 377.407 16.7417ZM368.534 47.4504C366.98 48.7748 364.908 50.3562 361.713 52.6789C354.797 57.7196 344.849 60.319 340.235 55.0609C335.841 50.0498 337.856 43.0225 341.933 38.5452C345.348 34.7893 349.463 31.6266 353.08 28.0882C356.361 24.8957 360.342 21.1103 359.517 16.4353C359.306 15.1852 358.766 14.0187 357.956 13.0635C357.146 12.1082 356.096 11.4009 354.922 11.019C352.543 10.0306 348.715 10.2283 345.559 10.5347C344.446 10.6434 342.422 10.8806 342.029 9.54633C341.559 7.9847 343.554 6.36377 344.561 5.59284C348.398 2.72656 354.02 1.39226 358.624 2.93412C366.241 5.47423 368.534 13.994 368.534 21.5748V47.4504Z" fill="#FDFFFC"/>
<path d="M305.717 5.20752V18.4715C302.647 7.53019 295.366 0.0383301 282.905 0.0383301C266.895 0.0383301 255.297 13.6383 255.297 31.8837C255.297 50.129 266.904 63.729 282.905 63.729C295.376 63.729 302.647 56.168 305.717 45.4442V55.9011C305.717 59.5976 305.429 80.7389 290.368 82.0436C272.036 83.625 263.863 65.8738 263.863 65.8738C262.303 67.8064 260.94 69.8996 259.796 72.1203C259.351 73.1987 259.261 74.3981 259.542 75.5339C259.823 76.6696 260.458 77.6789 261.35 78.4064C265.475 81.7174 276.852 86.4023 291.913 84.2872C314.12 81.1639 314.888 59.7162 314.888 48.3598V1.17496H309.612C309.096 1.16689 308.585 1.26583 308.108 1.46588C307.63 1.66593 307.197 1.96298 306.833 2.33933C306.47 2.71568 306.184 3.1636 305.992 3.65638C305.8 4.14916 305.707 4.6767 305.717 5.20752ZM286.052 56.425C274.694 56.425 265.446 46.9069 265.446 31.8837C265.446 16.8604 274.694 7.34241 286.052 7.34241C298.311 7.34241 305.659 15.9314 305.659 31.8837C305.659 48.1226 298.34 56.3953 286.052 56.3953V56.425Z" fill="#FDFFFC"/>
</g>
<defs>
<clipPath id="clip0_984_1607">
<rect width="377" height="85" fill="white"/>
</clipPath>
</defs>
</svg>
