<svg width="488" height="110" viewBox="0 0 488 110" fill="none" xmlns="http://www.w3.org/2000/svg">
<g clip-path="url(#clip0_556_3863)">
<path d="M21.482 14.3128C26.1178 11.6991 31.3448 10.4022 36.6275 10.5551C41.9101 10.7079 47.0583 12.305 51.5443 15.1826C54.922 17.5888 57.3082 21.205 58.2372 25.3256C58.4822 26.3593 59.0574 27.2781 59.8704 27.9346C60.6833 28.5911 61.6869 28.9471 62.7199 28.9454H70.9029C70.3151 19.719 66.83 12.5861 60.4475 7.54653C54.065 2.50699 45.7868 -0.00850553 35.6129 2.1606e-05C26.4489 2.1606e-05 19.2345 1.88025 12.9762 5.75584C6.71784 9.63142 3.04232 15.3105 2.8188 22.6524C2.68253 24.5423 2.92772 26.4408 3.53893 28.2283C4.15015 30.0158 5.11413 31.6536 6.37015 33.0384C8.85361 35.6605 12.2311 37.1698 16.4654 38.4872C21.8984 39.9883 27.4077 41.1796 32.968 42.0558C39.4374 43.207 44.1436 44.2558 47.7322 45.1768C50.7364 45.81 53.5453 47.1886 55.9152 49.1931C56.9691 50.2539 57.7835 51.5406 58.3006 52.962C58.8178 54.3833 59.0251 55.9044 58.9078 57.4175C58.9073 59.7346 58.2534 62.0016 57.0256 63.9431C55.7977 65.8845 54.0488 67.4168 51.9913 68.3535C47.394 70.7347 42.3106 71.9495 37.1651 71.8965C31.1758 72.0749 25.268 70.4334 20.1782 67.1768C16.5427 64.7958 13.8893 61.1152 12.7278 56.8419C12.4444 55.8264 11.8474 54.9338 11.0274 54.2991C10.2073 53.6644 9.20882 53.3222 8.18308 53.3244H-0.509033C0.169779 62.7043 4.01087 69.8884 11.0142 74.8768C18.0176 79.8652 26.8132 82.3849 37.401 82.4361C46.2669 82.4361 53.4193 80.7605 59.9757 77.0384C66.532 73.3163 70.4559 67.7012 70.6421 60.564C70.7922 58.6083 70.5475 56.6417 69.9235 54.7882C69.2995 52.9347 68.3096 51.2343 67.0163 49.7942C64.5328 47.1082 61.0435 45.4326 56.6975 44.064C51.148 42.4204 45.5035 41.1388 39.7975 40.2268C31.1054 38.7047 25.0209 37.1058 20.9605 35.2384C19.1144 34.5038 17.5431 33.1833 16.4738 31.468C15.4046 29.7526 14.8928 27.7313 15.0126 25.6965C15.0182 23.3794 15.6198 21.1052 16.7562 19.1056C17.8926 17.1059 19.5233 15.4521 21.482 14.3128Z" fill="#231F20"/>
<path d="M129.525 0.0134277C113.445 0.0134277 104.02 9.65762 100.034 23.753V6.74134C100.034 6.06404 99.9035 5.39348 99.65 4.76853C99.3965 4.14359 99.0251 3.57672 98.5573 3.10078C98.0895 2.62485 97.5346 2.24932 96.9248 1.996C96.315 1.74268 95.6624 1.61659 95.0049 1.62506H88.163V103.106C88.1547 103.789 88.279 104.467 88.5288 105.099C88.7786 105.731 89.1487 106.306 89.6174 106.789C90.086 107.271 90.6437 107.653 91.2577 107.91C91.8716 108.167 92.5293 108.295 93.192 108.287H100.034V58.889C104.02 72.703 113.445 82.4367 129.525 82.4367C150.237 82.4367 165.262 64.8367 165.262 41.2251C165.262 17.6134 150.25 0.0134277 129.525 0.0134277ZM125.415 72.9844C109.533 72.9844 100.022 62.2786 100.022 41.2251C100.022 20.5809 109.533 9.46575 125.415 9.46575C140.105 9.46575 152.075 21.7704 152.075 41.2251C152.075 60.6797 140.154 72.9844 125.415 72.9844Z" fill="#231F20"/>
<path d="M220.06 0C208.238 0 196.864 10.2325 193.362 24.1232V6.74069C193.362 5.38377 192.839 4.08242 191.908 3.12293C190.976 2.16345 189.713 1.62441 188.395 1.62441H181.553V75.8105C181.552 76.4918 181.681 77.1668 181.933 77.7968C182.185 78.4267 182.555 78.9993 183.022 79.4817C183.489 79.9641 184.044 80.3468 184.655 80.6079C185.266 80.8691 185.921 81.0035 186.582 81.0035H193.412V38.1674C193.648 22.1791 203.445 8.95348 217.179 9.60581C226.988 10.0663 231.285 18.2012 232.303 29.0093C232.428 30.2559 232.992 31.4121 233.889 32.2585C234.786 33.1049 235.954 33.5827 237.171 33.6012H244.062C245.192 7.86627 234.327 0 220.06 0Z" fill="#231F20"/>
<path d="M309.576 9.46326C306.848 6.02854 303.212 3.48263 299.108 2.13419L297.866 1.72489C288.392 -1.29371 277.924 -0.116966 268.785 3.83536C264.556 5.47849 260.788 8.17695 257.82 11.6888C256.082 13.9144 255.014 17.1377 256.517 19.5423C258.702 22.9958 263.744 21.2435 266.798 19.9133C271.008 18.0714 274.795 16.2679 279.476 16.2679C283.388 16.2679 287.846 18.8261 287.721 23.3923C287.597 27.9586 283.475 30.5167 280.196 32.6912C275.329 35.9144 270.61 38.6772 265.668 41.5551C259.398 45.226 253.251 49.7412 249.786 56.2388C246.322 62.7365 246.148 71.5877 251.115 76.9981C254.766 80.9377 260.341 82.3063 265.619 82.4214C279.985 82.7412 291.894 74.5167 302.312 65.154V75.7063C302.31 76.3876 302.439 77.0626 302.691 77.6926C302.943 78.3226 303.313 78.8951 303.78 79.3775C304.247 79.8599 304.802 80.2426 305.413 80.5038C306.024 80.7649 306.679 80.8993 307.341 80.8993H314.183V35.39C314.301 30.8111 314.169 26.229 313.785 21.6656C313.468 17.2833 312.014 13.0692 309.576 9.46326ZM302.361 61.4063C300.35 63.1202 297.655 65.1667 293.52 68.1726C284.567 74.6958 271.703 78.0598 265.73 71.2551C260.031 64.7702 262.651 55.676 267.916 49.8819C272.336 45.0214 277.663 40.9284 282.357 36.3493C286.591 32.2179 291.745 27.3191 290.689 21.2691C290.416 19.6498 289.715 18.1392 288.664 16.9028C287.613 15.6665 286.251 14.752 284.729 14.2598C281.662 12.9807 276.707 13.2365 272.622 13.633C271.169 13.7737 268.549 14.0807 268.052 12.354C267.444 10.333 270.014 8.23535 271.318 7.23768C276.347 3.52838 283.574 1.80163 289.534 3.79698C299.381 7.08419 302.361 18.1098 302.361 27.9202V61.4063Z" fill="#231F20"/>
<path d="M488.521 21.6656C488.183 17.2797 486.713 13.0668 484.262 9.46326C481.533 6.02541 477.891 3.47908 473.782 2.13419L472.54 1.72489C463.066 -1.29371 452.673 -0.116966 443.472 3.83536C439.238 5.47663 435.466 8.17521 432.495 11.6888C430.769 13.9144 429.688 17.1377 431.253 19.5423C433.426 22.9958 438.48 21.2435 441.522 19.9133C445.731 18.0714 449.531 16.2679 454.212 16.2679C458.111 16.2679 462.569 18.8261 462.445 23.3923C462.321 27.9586 458.211 30.5167 454.92 32.6912C450.053 35.9144 445.334 38.6772 440.404 41.5551C434.134 45.226 427.987 49.7412 424.51 56.2388C421.033 62.7365 420.884 71.5877 425.851 76.9981C429.49 80.9377 435.065 82.3063 440.355 82.4214C454.722 82.7412 466.617 74.5167 477.035 65.154V75.7063C477.035 77.0835 477.567 78.4044 478.512 79.3783C479.458 80.3522 480.74 80.8993 482.077 80.8993H488.906V35.39C489.029 30.8114 488.901 26.2293 488.521 21.6656ZM477.035 61.4063C475.024 63.1202 472.342 65.1667 468.207 68.1726C459.254 74.6958 446.377 78.0598 440.404 71.2551C434.717 64.7702 437.325 55.676 442.602 49.8819C447.023 45.0214 452.35 40.9284 457.031 36.3493C461.278 32.2179 466.431 27.3191 465.363 21.2691C465.091 19.6513 464.392 18.1417 463.343 16.9055C462.294 15.6693 460.935 14.754 459.415 14.2598C456.336 12.9807 451.381 13.2365 447.296 13.633C445.856 13.7737 443.236 14.0807 442.726 12.354C442.118 10.333 444.701 8.23535 446.005 7.23768C450.972 3.52838 458.248 1.80163 464.208 3.79698C474.068 7.08419 477.035 18.1098 477.035 27.9202V61.4063Z" fill="#231F20"/>
<path d="M395.727 6.7391V23.9042C391.754 9.74491 382.329 0.0495605 366.199 0.0495605C345.474 0.0495605 330.462 17.6496 330.462 41.2612C330.462 64.8728 345.487 82.4728 366.199 82.4728C382.341 82.4728 391.754 72.688 395.727 58.81V72.3426C395.727 77.1263 395.355 104.486 375.86 106.174C352.13 108.221 341.551 85.2484 341.551 85.2484C339.53 87.7494 337.766 90.4583 336.286 93.3321C335.709 94.7278 335.594 96.2799 335.957 97.7497C336.321 99.2195 337.143 100.526 338.297 101.467C343.637 105.752 358.364 111.815 377.859 109.077C406.605 105.036 407.598 77.2798 407.598 62.5833V1.52049H400.769C400.102 1.51005 399.44 1.63809 398.822 1.89698C398.204 2.15586 397.643 2.54029 397.172 3.02733C396.702 3.51436 396.331 4.09403 396.083 4.73174C395.835 5.36945 395.714 6.05215 395.727 6.7391ZM370.272 73.0205C355.57 73.0205 343.599 60.7031 343.599 41.2612C343.599 21.8193 355.57 9.50189 370.272 9.50189C386.141 9.50189 395.653 20.617 395.653 41.2612C395.653 62.2763 386.178 72.9821 370.272 72.9821V73.0205Z" fill="#231F20"/>
</g>
<defs>
<clipPath id="clip0_556_3863">
<rect width="488" height="110" fill="white"/>
</clipPath>
</defs>
</svg>
