<svg width="151" height="34" viewBox="0 0 151 34" fill="none" xmlns="http://www.w3.org/2000/svg">
<g clip-path="url(#clip0_701_665)">
<path d="M6.64714 4.42396C8.08156 3.61609 9.69895 3.21524 11.3335 3.26248C12.9681 3.30972 14.5611 3.80336 15.9492 4.6928C16.9943 5.43654 17.7327 6.55428 18.0202 7.82791C18.096 8.14741 18.274 8.43142 18.5255 8.63433C18.7771 8.83724 19.0876 8.94727 19.4072 8.94675H21.9393C21.7574 6.09497 20.679 3.89024 18.7041 2.33256C16.7292 0.774888 14.1677 -0.00262898 11.0196 6.67821e-06C8.18403 6.67821e-06 5.95169 0.581169 4.0152 1.77908C2.07871 2.97698 0.94141 4.73233 0.87225 7.00164C0.830083 7.5858 0.905952 8.17262 1.09508 8.72512C1.2842 9.27762 1.58248 9.78384 1.97113 10.2119C2.73958 11.0223 3.78467 11.4888 5.09487 11.8961C6.77599 12.36 8.48069 12.7282 10.2012 12.9991C12.203 13.3549 13.6592 13.6791 14.7696 13.9637C15.6992 14.1594 16.5684 14.5856 17.3017 15.2051C17.6278 15.533 17.8798 15.9307 18.0398 16.3701C18.1998 16.8094 18.2639 17.2795 18.2276 17.7472C18.2275 18.4634 18.0252 19.1641 17.6452 19.7642C17.2653 20.3643 16.7241 20.8379 16.0875 21.1274C14.665 21.8635 13.0921 22.2389 11.4999 22.2226C9.64664 22.2777 7.81862 21.7703 6.2437 20.7637C5.11877 20.0278 4.29776 18.8902 3.93836 17.5693C3.85066 17.2554 3.66595 16.9795 3.4122 16.7834C3.15845 16.5872 2.84949 16.4814 2.5321 16.4821H-0.157471C0.0525717 19.3813 1.24111 21.6019 3.40813 23.1437C5.57515 24.6856 8.29674 25.4644 11.5729 25.4802C14.3162 25.4802 16.5294 24.9623 18.5581 23.8119C20.5868 22.6614 21.8009 20.9258 21.8586 18.7198C21.905 18.1153 21.8293 17.5074 21.6362 16.9345C21.4431 16.3616 21.1368 15.8361 20.7366 15.3909C19.9682 14.5607 18.8885 14.0428 17.5437 13.6198C15.8266 13.1117 14.08 12.7156 12.3144 12.4337C9.62487 11.9633 7.74217 11.4691 6.48576 10.8919C5.91454 10.6648 5.42833 10.2567 5.09748 9.72646C4.76662 9.19626 4.60827 8.5715 4.64533 7.94257C4.64705 7.22637 4.83321 6.52344 5.18485 5.90535C5.53649 5.28727 6.04105 4.77612 6.64714 4.42396Z" fill="#231F20"/>
<path d="M40.0784 0.00415039C35.1027 0.00415039 32.1864 2.98508 30.9531 7.34183V2.08369C30.9531 1.87434 30.9127 1.66707 30.8343 1.47391C30.7559 1.28075 30.6409 1.10553 30.4962 0.958424C30.3514 0.811316 30.1797 0.695245 29.991 0.616945C29.8023 0.538645 29.6004 0.499674 29.397 0.502291H27.2799V31.8693C27.2773 32.0803 27.3158 32.2897 27.3931 32.4851C27.4704 32.6806 27.5849 32.8582 27.7299 33.0074C27.8749 33.1566 28.0475 33.2744 28.2375 33.354C28.4274 33.4335 28.6309 33.4731 28.836 33.4704H30.9531V18.2021C32.1864 22.4718 35.1027 25.4804 40.0784 25.4804C46.4873 25.4804 51.1364 20.0404 51.1364 12.7423C51.1364 5.44415 46.4911 0.00415039 40.0784 0.00415039ZM38.8066 22.5588C33.8924 22.5588 30.9492 19.2497 30.9492 12.7423C30.9492 6.36136 33.8924 2.92578 38.8066 2.92578C43.352 2.92578 47.0559 6.72904 47.0559 12.7423C47.0559 18.7556 43.3674 22.5588 38.8066 22.5588Z" fill="#231F20"/>
<path d="M68.0922 0C64.4343 0 60.9149 3.16279 59.8313 7.45628V2.08349C59.8313 1.66407 59.6694 1.26184 59.3812 0.96527C59.093 0.668701 58.7021 0.502092 58.2944 0.502092H56.1774V23.4323C56.1769 23.6429 56.2167 23.8516 56.2947 24.0463C56.3727 24.241 56.4872 24.418 56.6318 24.5671C56.7763 24.7162 56.948 24.8345 57.1371 24.9152C57.3261 24.9959 57.5288 25.0374 57.7335 25.0374H59.8467V11.7972C59.9197 6.85535 62.9512 2.76744 67.2008 2.96907C70.2361 3.11139 71.5655 5.62581 71.8806 8.96651C71.9191 9.35184 72.0938 9.7092 72.3714 9.97082C72.6491 10.2324 73.0103 10.3801 73.3868 10.3858H75.5192C75.8688 2.43139 72.5069 0 68.0922 0Z" fill="#231F20"/>
<path d="M95.7909 2.92499C94.947 1.86335 93.8219 1.07643 92.5519 0.659647L92.1677 0.533135C89.2361 -0.399888 85.9971 -0.0361666 83.1692 1.18546C81.8605 1.69334 80.6948 2.52741 79.7765 3.6129C79.2386 4.30081 78.9081 5.29708 79.3731 6.04034C80.0493 7.10778 81.6092 6.56616 82.5544 6.15499C83.8569 5.58569 85.0288 5.02825 86.4774 5.02825C87.6877 5.02825 89.067 5.81895 89.0286 7.23034C88.9902 8.64174 87.7146 9.43243 86.7002 10.1045C85.194 11.1008 83.734 11.9548 82.2048 12.8443C80.2645 13.9789 78.3625 15.3745 77.2906 17.3829C76.2186 19.3913 76.1648 22.1271 77.7017 23.7994C78.8313 25.0171 80.5565 25.4401 82.1894 25.4757C86.6349 25.5745 90.3196 23.0324 93.5432 20.1385V23.4001C93.5427 23.6107 93.5826 23.8193 93.6606 24.0141C93.7386 24.2088 93.8531 24.3858 93.9976 24.5349C94.1422 24.684 94.3139 24.8023 94.503 24.883C94.692 24.9637 94.8947 25.0052 95.0993 25.0052H97.2164V10.9387C97.2532 9.52343 97.2121 8.10714 97.0935 6.69662C96.9952 5.34211 96.5454 4.03956 95.7909 2.92499ZM93.5586 18.9801C92.9362 19.5099 92.1024 20.1424 90.8229 21.0715C88.0527 23.0878 84.0721 24.1276 82.224 22.0243C80.4604 20.0199 81.2711 17.2089 82.9002 15.418C84.2681 13.9157 85.9164 12.6506 87.3688 11.2352C88.679 9.95825 90.2735 8.44406 89.9469 6.57406C89.8624 6.07355 89.6456 5.60664 89.3203 5.2245C88.9949 4.84235 88.5737 4.55971 88.1026 4.40755C87.1536 4.0122 85.6205 4.09127 84.3564 4.21383C83.9069 4.25732 83.0962 4.3522 82.9425 3.81848C82.7542 3.19383 83.5496 2.54546 83.953 2.23709C85.5091 1.09058 87.7453 0.556854 89.5896 1.1736C92.6365 2.18964 93.5586 5.59755 93.5586 8.62988V18.9801Z" fill="#231F20"/>
<path d="M151.161 6.69662C151.057 5.341 150.602 4.03881 149.843 2.92499C148.999 1.86238 147.872 1.07534 146.601 0.659647L146.216 0.533135C143.285 -0.399888 140.069 -0.0361666 137.222 1.18546C135.912 1.69276 134.745 2.52687 133.825 3.6129C133.291 4.30081 132.957 5.29708 133.441 6.04034C134.113 7.10778 135.677 6.56616 136.618 6.15499C137.921 5.58569 139.097 5.02825 140.545 5.02825C141.752 5.02825 143.131 5.81895 143.093 7.23034C143.054 8.64174 141.782 9.43243 140.764 10.1045C139.258 11.1008 137.798 11.9548 136.273 12.8443C134.332 13.9789 132.43 15.3745 131.355 17.3829C130.279 19.3913 130.233 22.1271 131.77 23.7994C132.895 25.0171 134.62 25.4401 136.257 25.4757C140.703 25.5745 144.384 23.0324 147.607 20.1385V23.4001C147.607 23.8258 147.772 24.2341 148.064 24.5351C148.357 24.8361 148.753 25.0052 149.167 25.0052H151.28V10.9387C151.318 9.5235 151.279 8.10721 151.161 6.69662ZM147.607 18.9801C146.985 19.5099 146.155 20.1424 144.875 21.0715C142.105 23.0878 138.121 24.1276 136.273 22.0243C134.513 20.0199 135.32 17.2089 136.953 15.418C138.321 13.9157 139.969 12.6506 141.417 11.2352C142.731 9.95825 144.326 8.44406 143.996 6.57406C143.911 6.07402 143.695 5.60743 143.371 5.22533C143.046 4.84323 142.625 4.56032 142.155 4.40755C141.202 4.0122 139.669 4.09127 138.405 4.21383C137.959 4.25732 137.149 4.3522 136.991 3.81848C136.803 3.19383 137.602 2.54546 138.006 2.23709C139.542 1.09058 141.794 0.556854 143.638 1.1736C146.689 2.18964 147.607 5.59755 147.607 8.62988V18.9801Z" fill="#231F20"/>
<path d="M122.448 2.08306V7.38864C121.219 3.01213 118.302 0.0153809 113.311 0.0153809C106.899 0.0153809 102.253 5.45539 102.253 12.7535C102.253 20.0517 106.903 25.4917 113.311 25.4917C118.306 25.4917 121.219 22.4672 122.448 18.1777V22.3605C122.448 23.8391 122.333 32.2956 116.301 32.8175C108.958 33.45 105.685 26.3496 105.685 26.3496C105.059 27.1226 104.514 27.9599 104.055 28.8482C103.877 29.2796 103.841 29.7593 103.954 30.2136C104.066 30.6679 104.321 31.0716 104.678 31.3626C106.33 32.687 110.887 34.561 116.919 33.7149C125.814 32.4656 126.121 23.8865 126.121 19.344V0.470033H124.008C123.802 0.466804 123.597 0.506381 123.406 0.5864C123.215 0.66642 123.041 0.785243 122.895 0.935781C122.75 1.08632 122.635 1.26549 122.558 1.4626C122.482 1.65971 122.444 1.87073 122.448 2.08306ZM114.572 22.57C110.022 22.57 106.319 18.7628 106.319 12.7535C106.319 6.74422 110.022 2.93701 114.572 2.93701C119.482 2.93701 122.425 6.37259 122.425 12.7535C122.425 19.2491 119.494 22.5582 114.572 22.5582V22.57Z" fill="#231F20"/>
</g>
<defs>
<clipPath id="clip0_701_665">
<rect width="151" height="34" fill="white"/>
</clipPath>
</defs>
</svg>
