<svg width="151" height="34" viewBox="0 0 151 34" fill="none" xmlns="http://www.w3.org/2000/svg">
<g clip-path="url(#clip0_801_655)">
<path d="M6.64714 4.42396C8.08156 3.61609 9.69895 3.21524 11.3335 3.26248C12.9681 3.30972 14.5611 3.80336 15.9492 4.6928C16.9943 5.43654 17.7327 6.55428 18.0202 7.82791C18.096 8.14741 18.274 8.43142 18.5255 8.63433C18.7771 8.83724 19.0876 8.94727 19.4072 8.94675H21.9393C21.7574 6.09497 20.679 3.89024 18.7041 2.33256C16.7292 0.774888 14.1677 -0.00262898 11.0196 6.67821e-06C8.18403 6.67821e-06 5.95169 0.581169 4.0152 1.77908C2.07871 2.97698 0.94141 4.73233 0.87225 7.00164C0.830083 7.5858 0.905952 8.17262 1.09508 8.72512C1.2842 9.27762 1.58248 9.78384 1.97113 10.2119C2.73958 11.0223 3.78467 11.4888 5.09487 11.8961C6.77599 12.36 8.48069 12.7282 10.2012 12.9991C12.203 13.3549 13.6592 13.6791 14.7696 13.9637C15.6992 14.1594 16.5684 14.5856 17.3017 15.2051C17.6278 15.533 17.8798 15.9307 18.0398 16.3701C18.1998 16.8094 18.2639 17.2795 18.2276 17.7472C18.2275 18.4634 18.0252 19.1641 17.6452 19.7642C17.2653 20.3643 16.7241 20.8379 16.0875 21.1274C14.665 21.8635 13.0921 22.2389 11.4999 22.2226C9.64664 22.2777 7.81862 21.7703 6.2437 20.7637C5.11877 20.0278 4.29776 18.8902 3.93836 17.5693C3.85066 17.2554 3.66595 16.9795 3.4122 16.7834C3.15845 16.5872 2.84949 16.4814 2.5321 16.4821H-0.157471C0.0525717 19.3813 1.24111 21.6019 3.40813 23.1437C5.57515 24.6856 8.29674 25.4644 11.5729 25.4802C14.3162 25.4802 16.5294 24.9623 18.5581 23.8119C20.5868 22.6614 21.8009 20.9258 21.8586 18.7198C21.905 18.1153 21.8293 17.5074 21.6362 16.9345C21.4431 16.3616 21.1368 15.8361 20.7366 15.3909C19.9682 14.5607 18.8885 14.0428 17.5437 13.6198C15.8266 13.1117 14.08 12.7156 12.3144 12.4337C9.62487 11.9633 7.74217 11.4691 6.48576 10.8919C5.91454 10.6648 5.42833 10.2567 5.09748 9.72646C4.76662 9.19626 4.60827 8.5715 4.64533 7.94257C4.64705 7.22637 4.83321 6.52344 5.18485 5.90535C5.53649 5.28727 6.04105 4.77612 6.64714 4.42396Z" fill="#231F20"/>
<path d="M40.0784 0.00390625C35.1027 0.00390625 32.1864 2.98484 30.9531 7.34158V2.08344C30.9531 1.8741 30.9127 1.66683 30.8343 1.47367C30.7559 1.2805 30.6409 1.10529 30.4962 0.958179C30.3514 0.811072 30.1797 0.695001 29.991 0.616701C29.8023 0.538401 29.6004 0.49943 29.397 0.502047H27.2799V31.869C27.2773 32.08 27.3158 32.2894 27.3931 32.4849C27.4704 32.6804 27.5849 32.8579 27.7299 33.0071C27.8749 33.1563 28.0475 33.2742 28.2375 33.3537C28.4274 33.4332 28.6309 33.4728 28.836 33.4702H30.9531V18.2018C32.1864 22.4716 35.1027 25.4802 40.0784 25.4802C46.4873 25.4802 51.1364 20.0402 51.1364 12.742C51.1364 5.44391 46.4911 0.00390625 40.0784 0.00390625ZM38.8066 22.5586C33.8924 22.5586 30.9492 19.2495 30.9492 12.742C30.9492 6.36112 33.8924 2.92553 38.8066 2.92553C43.352 2.92553 47.0559 6.72879 47.0559 12.742C47.0559 18.7553 43.3674 22.5586 38.8066 22.5586Z" fill="#231F20"/>
<path d="M68.0923 0C64.4345 0 60.915 3.16279 59.8315 7.45628V2.08349C59.8315 1.66408 59.6695 1.26184 59.3813 0.965271C59.0931 0.668701 58.7022 0.502092 58.2946 0.502092H56.1775V23.4323C56.177 23.6429 56.2169 23.8516 56.2948 24.0463C56.3728 24.241 56.4874 24.418 56.6319 24.5671C56.7765 24.7162 56.9482 24.8345 57.1372 24.9152C57.3263 24.9959 57.5289 25.0374 57.7336 25.0374H59.8468V11.7972C59.9198 6.85535 62.9514 2.76744 67.2009 2.96907C70.2362 3.11139 71.5657 5.62581 71.8807 8.96651C71.9193 9.35184 72.0939 9.7092 72.3716 9.97082C72.6492 10.2324 73.0105 10.3801 73.3869 10.3858H75.5193C75.869 2.43139 72.507 0 68.0923 0Z" fill="#231F20"/>
<path d="M95.7907 2.92524C94.9468 1.8636 93.8216 1.07668 92.5517 0.659891L92.1675 0.533379C89.2358 -0.399644 85.9968 -0.0359224 83.1689 1.18571C81.8603 1.69358 80.6946 2.52765 79.7762 3.61315C79.2383 4.30105 78.9079 5.29733 79.3728 6.04059C80.049 7.10803 81.609 6.5664 82.5542 6.15524C83.8567 5.58594 85.0286 5.02849 86.4771 5.02849C87.6874 5.02849 89.0668 5.81919 89.0284 7.23059C88.9899 8.64198 87.7143 9.43268 86.7 10.1048C85.1938 11.1011 83.7338 11.955 82.2045 12.8445C80.2642 13.9792 78.3623 15.3748 77.2903 17.3831C76.2183 19.3915 76.1645 22.1273 77.7014 23.7997C78.8311 25.0173 80.5562 25.4404 82.1892 25.4759C86.6346 25.5748 90.3193 23.0327 93.543 20.1387V23.4004C93.5425 23.611 93.5824 23.8196 93.6603 24.0143C93.7383 24.209 93.8529 24.386 93.9974 24.5351C94.1419 24.6842 94.3137 24.8025 94.5027 24.8832C94.6918 24.9639 94.8944 25.0055 95.0991 25.0055H97.2162V10.939C97.2529 9.52367 97.2119 8.10738 97.0932 6.69687C96.995 5.34235 96.5452 4.03981 95.7907 2.92524ZM93.5584 18.9804C92.9359 19.5101 92.1022 20.1427 90.8227 21.0717C88.0524 23.088 84.0719 24.1278 82.2238 22.0245C80.4602 20.0201 81.2709 17.2092 82.9 15.4183C84.2678 13.9159 85.9162 12.6508 87.3685 11.2355C88.6787 9.95849 90.2732 8.44431 89.9467 6.57431C89.8621 6.0738 89.6453 5.60689 89.32 5.22474C88.9947 4.84259 88.5734 4.55995 88.1024 4.4078C87.1533 4.01245 85.6203 4.09152 84.3562 4.21408C83.9066 4.25756 83.0959 4.35245 82.9423 3.81873C82.754 3.19408 83.5493 2.5457 83.9528 2.23733C85.5089 1.09082 87.7451 0.557098 89.5893 1.17384C92.6362 2.18989 93.5584 5.5978 93.5584 8.63012V18.9804Z" fill="#231F20"/>
<path d="M151.162 6.69687C151.057 5.34124 150.602 4.03906 149.844 2.92524C148.999 1.86263 147.872 1.07558 146.601 0.659891L146.217 0.533379C143.285 -0.399644 140.069 -0.0359224 137.222 1.18571C135.912 1.69301 134.745 2.52712 133.825 3.61315C133.291 4.30105 132.957 5.29733 133.441 6.04059C134.114 7.10803 135.677 6.5664 136.619 6.15524C137.921 5.58594 139.097 5.02849 140.545 5.02849C141.752 5.02849 143.131 5.81919 143.093 7.23059C143.054 8.64198 141.783 9.43268 140.764 10.1048C139.258 11.1011 137.798 11.955 136.273 12.8445C134.333 13.9792 132.431 15.3748 131.355 17.3831C130.279 19.3915 130.233 22.1273 131.77 23.7997C132.896 25.0173 134.621 25.4404 136.258 25.4759C140.703 25.5748 144.384 23.0327 147.608 20.1387V23.4004C147.608 23.8261 147.772 24.2343 148.064 24.5353C148.357 24.8364 148.754 25.0055 149.167 25.0055H151.281V10.939C151.319 9.52375 151.279 8.10746 151.162 6.69687ZM147.608 18.9804C146.985 19.5101 146.155 20.1427 144.876 21.0717C142.105 23.088 138.121 24.1278 136.273 22.0245C134.513 20.0201 135.32 17.2092 136.953 15.4183C138.321 13.9159 139.969 12.6508 141.418 11.2355C142.732 9.95849 144.326 8.44431 143.996 6.57431C143.912 6.07427 143.695 5.60768 143.371 5.22558C143.046 4.84347 142.626 4.56057 142.155 4.4078C141.202 4.01245 139.669 4.09152 138.405 4.21408C137.96 4.25756 137.149 4.35245 136.991 3.81873C136.803 3.19408 137.602 2.5457 138.006 2.23733C139.543 1.09082 141.794 0.557098 143.638 1.17384C146.689 2.18989 147.608 5.5978 147.608 8.63012V18.9804Z" fill="#231F20"/>
<path d="M122.448 2.0833V7.38888C121.219 3.01237 118.302 0.015625 113.311 0.015625C106.899 0.015625 102.253 5.45563 102.253 12.7538C102.253 20.0519 106.903 25.4919 113.311 25.4919C118.306 25.4919 121.219 22.4675 122.448 18.178V22.3607C122.448 23.8393 122.333 32.2959 116.301 32.8177C108.958 33.4503 105.685 26.3498 105.685 26.3498C105.059 27.1229 104.514 27.9601 104.055 28.8484C103.877 29.2798 103.841 29.7595 103.954 30.2138C104.066 30.6681 104.321 31.0718 104.678 31.3628C106.33 32.6873 110.887 34.5612 116.919 33.7152C125.814 32.4659 126.121 23.8868 126.121 19.3442V0.470277H124.008C123.802 0.467048 123.597 0.506625 123.406 0.586645C123.215 0.666664 123.041 0.785487 122.895 0.936026C122.75 1.08656 122.635 1.26573 122.558 1.46284C122.482 1.65996 122.444 1.87097 122.448 2.0833ZM114.572 22.5703C110.022 22.5703 106.319 18.7631 106.319 12.7538C106.319 6.74447 110.022 2.93726 114.572 2.93726C119.482 2.93726 122.425 6.37284 122.425 12.7538C122.425 19.2494 119.494 22.5584 114.572 22.5584V22.5703Z" fill="#231F20"/>
</g>
<defs>
<clipPath id="clip0_801_655">
<rect width="151" height="34" fill="white"/>
</clipPath>
</defs>
</svg>
