<svg width="60" height="60" viewBox="0 0 60 60" fill="none" xmlns="http://www.w3.org/2000/svg">
<rect width="60" height="60" rx="30" fill="#FECC00"/>
<path d="M41.3962 20.3284C41.1098 20.0566 40.7278 19.8752 40.3458 19.8752L31.3216 19.8755V12.9439L37.7676 10.6335C38.5317 10.3617 38.8657 9.59154 38.5793 8.86659C38.2929 8.14163 37.4812 7.82466 36.7172 8.09645L29.3639 10.7239C28.8387 10.905 28.4567 11.4033 28.4567 11.9924V19.8755H19.4325C19.0028 19.8755 18.6208 20.0566 18.382 20.3287C18.0956 20.6005 18 21.0081 18 21.3706L20.7218 46.0163C21.0561 48.8706 23.5387 51 26.5469 51L33.2313 50.9997C36.2395 50.9997 38.7221 48.8704 39.0565 46.016L41.7782 21.3703C41.8259 20.9626 41.6827 20.6002 41.3962 20.3284ZM23.0614 27.3958C23.0614 26.2632 24.0162 25.3572 25.2099 25.3572C26.4036 25.3572 27.3584 26.2632 27.3584 27.3958C27.3584 28.5285 26.4036 29.4345 25.2099 29.4345C24.0162 29.3893 23.0614 28.4832 23.0614 27.3958ZM24.3983 36.1396C24.3983 35.0977 25.3056 34.2368 26.4037 34.2368C27.5018 34.2368 28.409 35.0977 28.409 36.1396C28.409 37.1816 27.5018 38.0424 26.4037 38.0424C25.2576 38.0424 24.3983 37.1816 24.3983 36.1396ZM27.3109 46.5597C26.308 46.5597 25.4964 45.7896 25.4964 44.8381C25.4964 43.8865 26.308 43.1164 27.3109 43.1164C28.3137 43.1164 29.1253 43.8865 29.1253 44.8381C29.125 45.7896 28.3133 46.5597 27.3109 46.5597ZM32.754 42.1652C31.7512 42.1652 30.8919 41.395 30.8919 40.3983C30.8919 39.4467 31.7035 38.6314 32.754 38.6314C33.8045 38.6314 34.6162 39.4015 34.6162 40.3983C34.6162 41.3495 33.8045 42.1652 32.754 42.1652ZM33.661 34.5086C32.5629 34.5086 31.6556 33.6477 31.6556 32.6058C31.6556 31.5639 32.5629 30.703 33.661 30.703C34.7591 30.703 35.6663 31.5639 35.6663 32.6058C35.6667 33.6477 34.8071 34.5086 33.661 34.5086ZM34.2342 27.4863C33.4225 27.4863 32.7541 26.852 32.7541 26.0819C32.7541 25.3118 33.4225 24.6776 34.2342 24.6776C35.0458 24.6776 35.7142 25.3118 35.7142 26.0819C35.6666 26.8521 35.0458 27.4863 34.2342 27.4863Z" fill="white"/>
</svg>
