<svg width="60" height="60" viewBox="0 0 60 60" fill="none" xmlns="http://www.w3.org/2000/svg">
<rect width="60" height="60" rx="30" fill="#FECC00"/>
<path d="M46.1738 39.4477C46.1139 39.8674 45.8743 40.2274 45.515 40.4674L32.7555 48.564C31.737 49.2237 30.4792 49.3438 29.3411 48.804L21.4339 45.3253C21.0746 45.1453 20.5953 45.2055 20.2958 45.3853L18.0793 46.7648C17.7798 46.9448 17.3603 46.8247 17.2407 46.5249L13.8262 39.3875C13.7066 39.0876 13.8262 38.7278 14.0659 38.6077L19.4571 35.7288C24.9082 32.7901 25.2678 38.3678 33.774 38.6077C34.8523 38.6677 35.7508 39.3875 36.0503 40.347L41.142 37.2881C42.7594 36.3286 44.7362 36.7483 45.8743 38.2477C46.1137 38.608 46.2334 39.0277 46.1736 39.4477L46.1738 39.4477Z" fill="white"/>
<path d="M37.428 35.0091C33.1151 34.1694 20.7749 34.8291 18.7381 20.3145C18.199 16.416 17.5401 13.4172 16.9412 12.1579C16.8215 11.9179 16.8813 11.6779 17.0609 11.4982C17.1806 11.3784 17.3604 11.3182 17.48 11.3182C17.5399 11.3182 17.6599 11.3182 17.7197 11.2582C28.8017 8.85924 33.8334 16.1164 34.0734 27.5122C34.1332 30.5112 35.7507 32.9701 38.5063 34.0497C39.1651 34.2897 39.1651 35.4894 37.428 35.0095L37.428 35.0091Z" fill="white"/>
<path d="M46.1741 14.4371C45.6948 15.3966 45.2158 17.6757 44.7963 20.6149C43.9576 26.9724 40.9627 29.4911 36.3497 30.871C35.6909 29.9115 35.3313 28.7719 35.2715 27.4523C35.2116 24.2137 34.7922 21.3947 34.0137 18.9952C34.7327 17.2559 35.691 15.8764 37.0089 14.8566C40.1837 12.5176 44.1374 13.1775 45.6948 13.5373C45.8145 13.5373 45.9943 13.5972 46.0541 13.7173C46.2337 13.8971 46.2938 14.197 46.1738 14.437L46.1741 14.4371Z" fill="white"/>
</svg>
