<svg width="60" height="60" viewBox="0 0 60 60" fill="none" xmlns="http://www.w3.org/2000/svg">
<rect width="60" height="60" rx="30" fill="#FECC00"/>
<path d="M46.9777 17.5194L39.2738 14L31.5698 17.5194L39.2738 21.0391L46.9777 17.5194Z" fill="white"/>
<path d="M40.095 22.5251V26.8659L44.4748 28.8602C44.7487 28.9775 44.944 29.2904 44.944 29.6033V29.6816L48.1115 28.2347V18.8492L40.095 22.5251Z" fill="white"/>
<path d="M34.7766 24.4021L38.4526 26.0835V22.5251L30.3967 18.849V26.1228L34.0728 24.4413C34.3074 24.324 34.542 24.3241 34.7766 24.4021Z" fill="white"/>
<path d="M27.581 21.1563L19.877 17.6366L12.1731 21.1563L19.877 24.6757L27.581 21.1563Z" fill="white"/>
<path d="M20.6982 32.8491C21.8322 32.8491 22.8881 33.0447 23.8658 33.4356V29.6032C23.8658 29.2903 24.0614 28.9774 24.335 28.8601L28.7148 26.8658L28.7151 22.4859L20.6592 26.162V32.849L20.6982 32.8491Z" fill="white"/>
<path d="M19.0559 33.0055V26.1227L11 22.4466V31.8321L16.0446 34.1393C16.9442 33.6311 17.9609 33.2402 19.0558 33.0056L19.0559 33.0055Z" fill="white"/>
<path d="M34.4246 26.0837L26.7207 29.6031L34.4246 33.1228L42.1286 29.6031L34.4246 26.0837Z" fill="white"/>
<path d="M25.5474 34.296C27.972 35.8995 29.6143 38.6368 29.6143 41.7653V42.1172L33.6033 43.9552V34.5697L25.5474 30.8936L25.5474 34.296Z" fill="white"/>
<path d="M35.2458 43.9944L43.3017 40.2794V30.8939L35.2458 34.5699V43.9944Z" fill="white"/>
<path d="M20.6983 34.5306C16.7097 34.5306 13.4636 37.7765 13.4636 41.7653C13.4636 45.7542 16.7094 49 20.6983 49C24.6872 49 27.933 45.7541 27.933 41.7653C27.9327 37.7767 24.6869 34.5306 20.6976 34.5306H20.6983ZM23.5139 43.4469C23.8268 43.7598 23.8268 44.3072 23.5139 44.6201C23.3576 44.7764 23.1228 44.8547 22.9275 44.8547C22.7319 44.8547 22.4973 44.7764 22.341 44.6201L20.6985 42.9777L19.056 44.6201C18.8997 44.7764 18.6649 44.8547 18.4696 44.8547C18.274 44.8547 18.0394 44.7764 17.8831 44.6201C17.5702 44.3073 17.5702 43.7598 17.8831 43.4469L19.5255 41.8044L17.8826 40.1227C17.5697 39.8098 17.5697 39.2624 17.8826 38.9494C18.1955 38.6366 18.7429 38.6366 19.0559 38.9494L20.6983 40.5919L22.3408 38.9494C22.6537 38.6366 23.2011 38.6366 23.514 38.9494C23.8269 39.2623 23.8269 39.8098 23.514 40.1227L21.8716 41.7652L23.5139 43.4469Z" fill="white"/>
</svg>
