<svg width="60" height="60" viewBox="0 0 60 60" fill="none" xmlns="http://www.w3.org/2000/svg">
<rect width="60" height="60" rx="30" fill="#FECC00"/>
<path d="M30.5 11C30.5 11 17 28.1312 17 35.5523C17 42.9734 23.0493 49 30.5 49C37.9507 49 44 42.9668 44 35.5523C44 28.1379 30.5 11 30.5 11ZM30.5 45.6186C30.3038 45.6125 30.1178 45.5305 29.9812 45.3901C29.8446 45.2497 29.7682 45.0619 29.7682 44.8664C29.7682 44.6709 29.8446 44.4831 29.9812 44.3427C30.1178 44.2023 30.3038 44.1203 30.5 44.1142C35.8876 44.1142 40.2784 39.7405 40.2784 34.3737C40.2845 34.1783 40.3668 33.993 40.5077 33.8569C40.6487 33.7208 40.8372 33.6448 41.0335 33.6448C41.2298 33.6448 41.4183 33.7208 41.5593 33.8569C41.7002 33.993 41.7825 34.1783 41.7886 34.3737C41.8199 40.5858 36.7363 45.6186 30.5 45.6186Z" fill="#FDFFFC"/>
</svg>
