<svg width="60" height="60" viewBox="0 0 60 60" fill="none" xmlns="http://www.w3.org/2000/svg">
<rect width="60" height="60" rx="30" fill="#FECC00"/>
<path d="M46.9782 17.5194L39.2743 14L31.5703 17.5194L39.2743 21.0391L46.9782 17.5194Z" fill="white"/>
<path d="M40.0947 22.525V26.8658L44.4746 28.8601C44.7484 28.9774 44.9438 29.2903 44.9438 29.6032V29.6815L48.1113 28.2346V18.8491L40.0947 22.525Z" fill="white"/>
<path d="M34.7763 24.4022L38.4524 26.0836V22.5252L30.3965 18.8491V26.1229L34.0725 24.4415C34.3071 24.3242 34.5417 24.3242 34.7763 24.4022Z" fill="white"/>
<path d="M27.5807 21.1562L19.8768 17.6365L12.1729 21.1562L19.8768 24.6756L27.5807 21.1562Z" fill="white"/>
<path d="M20.6982 32.849C21.8322 32.849 22.8881 33.0446 23.8658 33.4355V29.6031C23.8658 29.2902 24.0614 28.9774 24.335 28.86L28.7148 26.8657L28.7151 22.4858L20.6592 26.1619V32.8489L20.6982 32.849Z" fill="white"/>
<path d="M19.0559 33.0054V26.1226L11 22.4465V31.832L16.0446 34.1392C16.9442 33.6311 17.9609 33.2402 19.0558 33.0056L19.0559 33.0054Z" fill="white"/>
<path d="M34.4246 26.0837L26.7207 29.6032L34.4246 33.1229L42.1286 29.6032L34.4246 26.0837Z" fill="white"/>
<path d="M25.5479 34.2959C27.9724 35.8994 29.6148 38.6367 29.6148 41.7652V42.1171L33.6037 43.9551V34.5696L25.5479 30.8936L25.5479 34.2959Z" fill="white"/>
<path d="M35.2461 43.9943L43.302 40.2793V30.8938L35.2461 34.5699V43.9943Z" fill="white"/>
<path d="M20.6985 34.5308C16.7099 34.5308 13.4639 37.7766 13.4639 41.7654C13.4639 45.7543 16.7097 49.0001 20.6985 49.0001C24.6874 49.0001 27.9332 45.7543 27.9332 41.7654C27.9329 37.7768 24.6871 34.5308 20.6978 34.5308H20.6985ZM23.5142 43.447C23.8271 43.7599 23.8271 44.3073 23.5142 44.6203C23.3579 44.7766 23.123 44.8549 22.9277 44.8549C22.7321 44.8549 22.4975 44.7766 22.3412 44.6203L20.6988 42.9778L19.0563 44.6203C18.9 44.7766 18.6651 44.8549 18.4698 44.8549C18.2742 44.8549 18.0396 44.7766 17.8833 44.6203C17.5704 44.3074 17.5704 43.7599 17.8833 43.447L19.5258 41.8045L17.8828 40.1228C17.57 39.8099 17.57 39.2625 17.8828 38.9496C18.1957 38.6367 18.7432 38.6367 19.0561 38.9496L20.6986 40.592L22.341 38.9496C22.6539 38.6367 23.2014 38.6367 23.5143 38.9496C23.8272 39.2624 23.8272 39.8099 23.5143 40.1228L21.8718 41.7653L23.5142 43.447Z" fill="white"/>
</svg>
