<svg width="60" height="60" viewBox="0 0 60 60" fill="none" xmlns="http://www.w3.org/2000/svg">
<circle cx="30" cy="30" r="30" fill="white"/>
<path d="M30 0C13.4594 0 0 13.4594 0 30C0 46.5406 13.4594 60 30 60C46.5406 60 60 46.5406 60 30C60 13.4594 46.5406 0 30 0ZM42.04 18.3497C43.1302 19.1296 43.4601 20.4797 42.8302 21.5595C40.54 25.5095 37.39 28.9296 33.4704 31.7095C33.0003 32.0497 32.4302 32.2095 31.8503 32.2095C31.2405 32.2095 30.6204 32.0193 30.1004 31.6497C29.4004 31.1497 28.9905 30.3996 29.0004 29.5899C29.0004 28.8301 29.3704 28.1301 30.0102 27.6801C33.3401 25.31 36.02 22.41 37.9601 19.06C38.3199 18.4501 38.9199 18.0198 39.6601 17.86C40.4802 17.68 41.34 17.86 42.0302 18.3501L42.04 18.3497ZM20.1806 11.5595C24.8403 8.04972 30.0707 5.53943 35.7211 4.08949C37.0809 3.73949 38.5113 4.40958 39.1211 5.67966C39.5113 6.47966 39.5113 7.4096 39.1412 8.2096C38.7613 9.01942 38.051 9.6096 37.1913 9.82971C32.3011 11.0798 27.7815 13.2597 23.7513 16.2895C23.2312 16.6797 22.6111 16.8895 21.9714 16.8895C21.7415 16.8895 21.5013 16.8596 21.2714 16.8096C20.4013 16.5998 19.6915 16.0194 19.3013 15.2194C18.6915 13.9493 19.0612 12.4194 20.1915 11.5693L20.1806 11.5595ZM27.0007 23.9995C27.0007 25.6496 25.6507 26.9995 24.0007 26.9995C22.3506 26.9995 21.0007 25.6496 21.0007 23.9995C21.0007 22.3495 22.3506 20.9995 24.0007 20.9995C25.6507 20.9995 27.0007 22.3495 27.0007 23.9995ZM13.6601 38.459C13.8302 39.3291 13.6101 40.229 13.0503 40.9187C12.4905 41.6089 11.6503 41.9986 10.7601 41.9986C9.3503 41.9986 8.13018 40.9987 7.86013 39.6188C6.71994 33.8987 6.71994 28.0988 7.86013 22.3788C8.14003 20.9989 9.36012 19.9989 10.7601 19.9989C11.6503 19.9989 12.4901 20.3989 13.0503 21.0788C13.6101 21.769 13.8405 22.6587 13.6601 23.5386C12.6699 28.4885 12.6699 33.5086 13.6601 38.4586V38.459ZM13.0003 17.9995C11.3502 17.9995 10.0003 16.6496 10.0003 14.9995C10.0003 13.3495 11.3502 11.9995 13.0003 11.9995C14.6504 11.9995 16.0003 13.3495 16.0003 14.9995C16.0003 16.6496 14.6504 17.9995 13.0003 17.9995ZM21.0003 51.9995C19.3502 51.9995 18.0003 50.6496 18.0003 48.9995C18.0003 47.3495 19.3502 45.9995 21.0003 45.9995C22.6504 45.9995 24.0003 47.3495 24.0003 48.9995C24.0003 50.6496 22.6504 51.9995 21.0003 51.9995ZM43.15 49.7197C42.5701 50.5598 41.6299 50.9995 40.6902 50.9995C40.1501 50.9995 39.6103 50.8594 39.1305 50.5594C31.2104 48.1893 24.1202 43.2495 19.151 36.6291C17.9108 35.659 17.6412 33.8693 18.551 32.559C19.501 31.1992 21.3712 30.8688 22.7309 31.809C22.8211 31.8688 22.901 31.9492 22.9608 32.0291C27.7011 38.3992 34.5106 43.1492 42.1311 45.3994C42.2311 45.4293 42.3311 45.4793 42.4213 45.5396C43.7811 46.4896 44.1115 48.3597 43.1713 49.7195L43.15 49.7197ZM43 37.9997C41.35 37.9997 40 36.6497 40 34.9997C40 33.3496 41.35 31.9997 43 31.9997C44.6501 31.9997 46 33.3496 46 34.9997C46 36.6497 44.6501 37.9997 43 37.9997ZM45.0701 17.9997C43.42 17.9997 42.0701 16.6497 42.0701 14.9997C42.0701 13.3496 43.42 11.9997 45.0701 11.9997C46.7201 11.9997 48.0701 13.3496 48.0701 14.9997C48.0701 16.6497 46.7201 17.9997 45.0701 17.9997ZM51.3103 42.8397C51.1304 42.8397 50.9505 42.8196 50.7701 42.7897C49.9902 42.6298 49.35 42.1598 49.05 41.5098C48.7902 40.95 48.8201 40.3299 49.1098 39.7999C50.4799 37.3499 51.1897 34.7299 51.2299 32.0201C51.2299 31.4401 51.5 30.9201 51.9799 30.5402C52.5398 30.0902 53.3397 29.9103 54.1 30.0603C55.2201 30.2804 56.0202 31.1701 56 32.1701C55.9501 35.5 55.0701 38.7103 53.4 41.72C53.0099 42.4299 52.1902 42.8499 51.3099 42.8499L51.3103 42.8397Z" fill="#FECC00"/>
</svg>
